<?xml version="1.0" encoding="UTF-8" standalone="no"?>
<!-- Created with Inkscape (http://www.inkscape.org/) -->

<svg
   xmlns:dc="http://purl.org/dc/elements/1.1/"
   xmlns:cc="http://creativecommons.org/ns#"
   xmlns:rdf="http://www.w3.org/1999/02/22-rdf-syntax-ns#"
   xmlns:svg="http://www.w3.org/2000/svg"
   xmlns="http://www.w3.org/2000/svg"
   xmlns:sodipodi="http://sodipodi.sourceforge.net/DTD/sodipodi-0.dtd"
   xmlns:inkscape="http://www.inkscape.org/namespaces/inkscape"
   version="1.1"
   id="svg10"
   width="400"
   height="236"
   viewBox="0 0 400 236"
   sodipodi:docname="logo.svg"
   inkscape:version="0.92.1 r15371">
  <metadata
     id="metadata16">
    <rdf:RDF>
      <cc:Work
         rdf:about="">
        <dc:format>image/svg+xml</dc:format>
        <dc:type
           rdf:resource="http://purl.org/dc/dcmitype/StillImage" />
        <dc:title></dc:title>
      </cc:Work>
    </rdf:RDF>
  </metadata>
  <defs
     id="defs14" />
  <sodipodi:namedview
     pagecolor="#ffffff"
     bordercolor="#666666"
     borderopacity="1"
     objecttolerance="10"
     gridtolerance="10"
     guidetolerance="10"
     inkscape:pageopacity="0"
     inkscape:pageshadow="2"
     inkscape:window-width="1920"
     inkscape:window-height="1017"
     id="namedview12"
     showgrid="false"
     inkscape:zoom="3.5932203"
     inkscape:cx="200"
     inkscape:cy="118"
     inkscape:window-x="-8"
     inkscape:window-y="-8"
     inkscape:window-maximized="1"
     inkscape:current-layer="svg10" />
  <g
     id="g20"
     transform="translate(2.5339623e-6,0.27830209)">
    <path
       style="fill:#fefefe;stroke-width:1.33333337"
       d="M 0,118 V 0 H 200 400 V 118 236 H 200 0 Z"
       id="path36"
       inkscape:connector-curvature="0" />
    <path
       style="fill:#fcf5d5;stroke-width:1.33333337"
       d="m 200,185.82809 c 0,-2.35288 35.82357,-52.49476 37.50457,-52.49476 0.569,0 0.25531,2.55 -0.69709,5.66667 -0.9524,3.11667 -4.62504,15.11667 -8.16143,26.66667 l -6.42978,21 H 211.10813 C 204.99865,186.66667 200,186.28931 200,185.82809 Z m 38.66667,-0.90253 c 0,-0.9576 1.16546,-5.3076 2.58993,-9.66667 1.42447,-4.35905 5.05028,-15.87556 8.05735,-25.59222 L 254.78133,132 h 9.81224 c 9.80704,0 9.813,-0.002 11.27599,-4.19896 C 278.58743,120.00458 278.58007,120 263.33333,120 c -8.38482,0 -14,-0.53138 -14,-1.32487 0,-4.62014 45.67194,-51.023818 67.45852,-68.539329 21.46524,-17.257162 53.98518,-38.469881 55.95542,-36.499649 0.26516,0.265157 -6.61784,24.155497 -15.29555,53.089643 L 341.67405,119.33333 312.52183,120 283.3696,120.66667 277.03039,142 c -3.48658,11.73333 -6.34474,21.48333 -6.35147,21.66667 -0.007,0.18333 9.54489,0.33333 21.22584,0.33333 17.52959,0 21.60396,0.36587 23.33333,2.09524 2.88656,2.88656 2.6244,8.04227 -0.57142,11.23809 C 312.20444,179.79556 310.22223,180 288.81121,180 h -23.18878 l -0.83662,3.33333 c -0.8188,3.26234 -1.10585,3.33334 -13.47788,3.33334 -9.51237,0 -12.64126,-0.43095 -12.64126,-1.74111 z"
       id="path34"
       inkscape:connector-curvature="0" />
    <path
       style="fill:#fbedaf;stroke-width:1.33333337"
       d="m 200,185.85123 c 0,-2.06451 35.9854,-52.38655 37.52207,-52.47092 0.47048,-0.0259 -2.08506,9.40302 -5.67895,20.95302 -3.59389,11.55 -7.20007,23.55 -8.01369,26.66667 l -1.47934,5.66667 H 211.17505 C 205.02877,186.66667 200,186.29972 200,185.85123 Z m 38.67075,-0.18456 c 0.003,-0.55 2.12662,-7.9 4.72085,-16.33334 2.59423,-8.43333 6.22116,-20.25861 8.05985,-26.2784 l 3.34307,-10.94506 10.12627,-0.38827 10.12626,-0.38827 1.78958,-6 c 0.98425,-3.3 1.79866,-6.15 1.8098,-6.33333 0.0107,-0.18333 -6.63018,-0.33333 -14.75847,-0.33333 h -14.77871 l 4.00296,-5.05416 C 267.44035,95.521785 301.59832,62.146941 322,46.304121 341.07161,31.494151 371.16899,11.976183 372.57715,13.505136 372.82783,13.777312 366.00895,37.4 357.42409,66 l -15.60882,52 -29.06899,0.66667 -29.069,0.66666 -6.46836,21.33334 C 273.65131,152.4 270.72392,162.45 270.7036,163 c -0.0203,0.55 9.47008,1 21.08975,1 18.77386,0 21.37244,0.27155 23.33333,2.43832 3.20517,3.54168 2.70939,7.63935 -1.30649,10.79824 C 310.58181,179.78387 308.55031,180 287.84559,180 h -22.46146 l -0.83661,3.33333 c -0.81809,3.25955 -1.11379,3.33334 -13.35873,3.33334 -6.88716,0 -12.52028,-0.45 -12.51804,-1 z"
       id="path32"
       inkscape:connector-curvature="0" />
    <path
       style="fill:#f9e78f;stroke-width:1.33333337"
       d="m 200.79192,185.05575 c 8.32479,-14.08234 35.50923,-51.52703 36.07435,-49.68992 0.22008,0.71546 -3.05695,12.40084 -7.28228,25.9675 L 221.90156,186 l -11.06392,0.38908 c -8.75484,0.30788 -10.85143,0.0296 -10.04572,-1.33333 z m 37.87475,0.53648 c 0,-0.59094 1.16546,-4.64094 2.58993,-9 1.42447,-4.35906 5.05028,-15.87556 8.05735,-25.59223 l 5.46738,-17.66667 h 9.89102 9.89101 l 2.05165,-6.90866 c 1.12842,-3.79977 2.05166,-7.09977 2.05166,-7.33334 0,-0.23356 -6.65587,-0.42466 -14.79083,-0.42466 h -14.79083 l 5.79083,-6.99872 c 9.28708,-11.22423 40.70709,-42.990303 52.83365,-53.415531 16.20284,-13.929623 35.00819,-27.662922 50.69592,-37.022554 7.55631,-4.508256 13.91891,-7.979261 14.13914,-7.713346 C 372.76476,13.782433 365.91017,37.4 357.31215,66 l -15.6328,52 -29.11687,0.66667 -29.11685,0.66666 L 277.77104,138 c -3.12103,10.26667 -6.04065,20.30159 -6.48807,22.29983 l -0.81346,3.63317 21.71577,0.36683 21.71577,0.36684 1.97016,3.51302 c 1.76695,3.15068 1.7345,3.87268 -0.3146,7 l -2.28476,3.48698 h -24.00258 -24.0026 l -0.8,4 -0.8,4 h -12.5 c -6.875,0 -12.5,-0.4835 -12.5,-1.07444 z"
       id="path30"
       inkscape:connector-curvature="0" />
    <path
       style="fill:#f9e276;stroke-width:1.33333337"
       d="m 200.78932,185.05575 c 6.65163,-11.28079 35.18647,-50.85774 36.04747,-49.99674 0.28661,0.2866 -2.96415,11.86558 -7.2239,25.73104 L 221.86791,186 l -11.0471,0.38908 c -8.74004,0.30783 -10.835,0.0293 -10.03149,-1.33333 z m 37.87735,1.01308 c 0,-0.32882 1.4556,-5.27882 3.23466,-11 1.77907,-5.72119 5.41242,-17.45216 8.0741,-26.06883 l 4.83942,-15.66667 h 9.80058 9.80057 l 2.12533,-6.23752 c 1.16894,-3.43063 2.12534,-6.73063 2.12534,-7.33333 0,-0.6027 -6.65936,-1.09581 -14.79859,-1.09581 h -14.7986 l 7.12297,-8.33334 C 275.24567,88.04252 306.54577,58.171476 327.33333,42.440504 346.21264,28.153601 372,12.296808 372,14.974717 c 0,1.312188 -15.42959,53.520399 -26.7954,90.666083 l -3.96981,12.97413 -28.92976,0.3592 -28.92975,0.3592 -5.5856,18.35107 c -3.07207,10.09309 -5.97919,20.14309 -6.46024,22.33333 L 270.45479,164 h 20.7726 c 18.99484,0 21.00084,0.22823 23.43928,2.66667 3.20922,3.20922 3.33422,5.12024 0.59106,9.03665 -2.01302,2.874 -2.79305,2.96335 -25.86957,2.96335 H 265.5942 l -1.39441,4 -1.3944,4 h -12.06936 c -6.63815,0 -12.06936,-0.26903 -12.06936,-0.59784 z"
       id="path28"
       inkscape:connector-curvature="0" />
    <path
       style="fill:#f7d94e;stroke-width:1.33333337"
       d="m 200.76511,185.05575 c 4.67606,-8.12407 35.31716,-50.75126 35.99416,-50.07426 0.24645,0.24646 -3.05311,11.82644 -7.33236,25.73331 L 221.64644,186 l -10.93637,0.38908 c -8.63974,0.30739 -10.72816,0.0273 -9.94496,-1.33333 z m 38.68104,-1.38908 c 2.6809,-8.38492 15.22052,-49.39527 15.22052,-49.77814 0,-0.24366 4.58558,-0.61826 10.1902,-0.83244 l 10.19018,-0.38942 1.78958,-6 c 0.98425,-3.3 1.79866,-6.45 1.8098,-7 0.0107,-0.55 -6.62351,-1 -14.74364,-1 h -14.7639 l 12.24908,-13.99101 c 23.99432,-27.40652 56.07276,-56.170432 82.29003,-73.787353 13.79997,-9.27302 26.8672,-16.787548 27.71612,-15.938627 0.33335,0.33334 -6.29397,23.605836 -14.72736,51.716657 -8.43339,28.110822 -15.33343,51.310773 -15.33343,51.555453 0,0.24468 -13.07056,0.44488 -29.04569,0.44488 h -29.04569 l -6.28764,21.19626 c -3.4582,11.65795 -6.28764,21.85795 -6.28764,22.66667 0,1.00593 6.28305,1.4704 19.89094,1.4704 10.94003,0 20.88599,0.38183 22.10215,0.84851 3.66237,1.40538 5.07073,7.01342 2.67827,10.6648 -2.04495,3.12097 -2.31104,3.15336 -25.905,3.15336 H 265.5942 l -1.39441,4 -1.3944,4 h -12.15922 c -12.00486,0 -12.14702,-0.0381 -11.20002,-3 z"
       id="path26"
       inkscape:connector-curvature="0" />
    <path
       style="fill:#f6d32e;stroke-width:1.33333337"
       d="m 208.18696,174.33333 c 7.93515,-11.85441 25.47537,-36.23412 28.05892,-39 0.79984,-0.85628 1.00569,-0.61776 0.57537,0.66667 -0.36853,1.1 -3.14154,10.1 -6.16224,20 -3.02069,9.9 -6.40293,20.85 -7.51608,24.33333 l -2.0239,6.33334 h -10.59391 -10.59391 z m 31.0596,10.07867 c 0.49789,-1.29748 4.28361,-13.32096 8.41272,-26.71885 l 7.50748,-24.35982 h 9.78295 c 10.67869,0 11.18982,-0.4223 13.31397,-11 L 279,118.66667 h -14.27777 c -8.58142,0 -14.10047,-0.5128 -13.83334,-1.28532 0.24444,-0.70692 7.76947,-9.36162 16.72227,-19.232663 19.40888,-21.399526 40.55965,-40.763708 62.36192,-57.094239 15.80503,-11.838419 40.22528,-27.300537 41.34652,-26.179288 0.3192,0.319197 -6.38847,23.802867 -14.90591,52.185933 L 340.92741,118.66667 H 312.03017 283.13295 L 276.4876,141 269.84227,163.33333 291.63949,164 c 23.54192,0.72003 24.29868,0.97668 24.3401,8.25464 0.0107,1.97339 -0.72959,4.07339 -1.64626,4.66667 -0.91666,0.59328 -12.44074,1.37869 -25.60905,1.74536 l -23.94239,0.66666 -0.7813,3.33334 c -0.75595,3.22512 -1.18514,3.34585 -13.2203,3.71885 -11.4345,0.35439 -12.36588,0.19503 -11.53373,-1.97352 z"
       id="path24"
       inkscape:connector-curvature="0" />
    <path
       style="fill:#f5ca01;stroke-width:1.33333337"
       d="m 201.80117,184.70403 c 1.67467,-4.36412 32.82838,-47.85226 33.67416,-47.00648 0.2559,0.2559 -2.82136,11.15404 -6.83836,24.21808 -4.017,13.06404 -7.30364,23.97741 -7.30364,24.25192 0,0.27452 -4.56418,0.49912 -10.14265,0.49912 -8.38209,0 -10.01192,-0.34068 -9.38951,-1.96264 z m 40.304,-8.3707 c 1.77763,-5.68333 5.46219,-17.68333 8.1879,-26.66666 l 4.95584,-16.33334 10.04221,-0.003 10.04221,-0.003 2.15834,-7.33084 2.15834,-7.33076 h -14.56728 -14.56728 l 1.98027,-2.82723 c 1.08915,-1.55498 8.619,-10.15705 16.733,-19.115724 25.74772,-28.428045 60.37512,-57.481389 88.77759,-74.486825 7.11268,-4.258583 13.10145,-7.55403 13.30837,-7.323218 0.20692,0.231754 -6.59544,23.6706 -15.11636,52.087267 l -15.49257,51.66667 h -28.9297 c -26.40248,0 -28.98946,0.20383 -29.61405,2.33333 -3.58351,12.21781 -11.97697,40.02193 -12.47765,41.33333 C 269.19233,163.62201 273.70008,164 289.56067,164 311.94871,164 316,165.12068 316,171.31371 c 0,6.74828 -2.26135,7.35296 -27.49793,7.35296 h -23.30746 l -1.3944,4 -1.39441,4 h -11.76635 -11.76633 z"
       id="path22"
       inkscape:connector-curvature="0" />
  </g>
</svg>
