<?xml version="1.0" encoding="UTF-8"?><!DOCTYPE svg PUBLIC "-//W3C//DTD SVG 1.1//EN" "http://www.w3.org/Graphics/SVG/1.1/DTD/svg11.dtd"><svg xmlns="http://www.w3.org/2000/svg"><symbol id="icon-logo" viewBox="0 0 400 236">
    <path d="M0 118.278v-118h400v236H0z"/>
    <path d="M200 186.106c0-2.352 35.824-52.494 37.505-52.494.569 0 .255 2.55-.698 5.666a87051.89 87051.89 0 0 1-8.16 26.667l-6.43 21h-11.109c-6.11 0-11.108-.377-11.108-.839zm38.667-.902c0-.958 1.165-5.308 2.59-9.667 1.424-4.359 5.05-15.875 8.057-25.592l5.467-17.667h9.813c9.807 0 9.813-.002 11.276-4.199 2.717-7.796 2.71-7.8-12.537-7.8-8.384 0-14-.532-14-1.326 0-4.62 45.672-51.023 67.459-68.539 21.465-17.257 53.985-38.47 55.955-36.5.265.266-6.618 24.156-15.295 53.09l-15.778 52.608-29.152.666-29.152.667-6.34 21.333c-3.486 11.734-6.344 21.484-6.351 21.667-.007.183 9.545.333 21.226.333 17.53 0 21.604.366 23.333 2.096 2.887 2.886 2.624 8.042-.571 11.238-2.463 2.462-4.445 2.666-25.856 2.666h-23.189l-.836 3.334c-.819 3.262-1.106 3.333-13.478 3.333-9.512 0-12.641-.431-12.641-1.741z"/>
    <path d="M200 186.13c0-2.065 35.985-52.387 37.522-52.471.47-.026-2.085 9.403-5.679 20.953-3.594 11.55-7.2 23.55-8.014 26.666l-1.479 5.667h-11.175c-6.146 0-11.175-.367-11.175-.815zm38.67-.185c.004-.55 2.127-7.9 4.722-16.333 2.594-8.434 6.22-20.259 8.06-26.279l3.343-10.945L264.92 132l10.126-.388 1.79-6c.984-3.3 1.798-6.15 1.81-6.334.01-.183-6.63-.333-14.759-.333h-14.779l4.003-5.054C267.44 95.8 301.598 62.425 322 46.582c19.072-14.81 49.169-34.328 50.577-32.799.25.273-6.568 23.895-15.153 52.495l-15.609 52-29.069.667-29.069.667-6.468 21.333c-3.558 11.733-6.485 21.783-6.505 22.333-.02.55 9.47 1 21.09 1 18.773 0 21.372.272 23.333 2.439 3.205 3.541 2.71 7.639-1.307 10.798-3.238 2.547-5.27 2.763-25.974 2.763h-22.462l-.836 3.334c-.819 3.26-1.114 3.333-13.36 3.333-6.886 0-12.52-.45-12.517-1z"/>
    <path d="M200.792 185.334c8.325-14.082 35.51-51.527 36.074-49.69.22.716-3.057 12.401-7.282 25.968l-7.682 24.666-11.064.39c-8.755.307-10.852.029-10.046-1.334zm37.875.537c0-.591 1.165-4.641 2.59-9 1.424-4.36 5.05-15.876 8.057-25.593l5.467-17.666h19.782l2.052-6.909c1.128-3.8 2.052-7.1 2.052-7.333 0-.234-6.656-.425-14.791-.425h-14.791l5.79-6.999c9.288-11.224 40.708-42.99 52.834-53.415 16.203-13.93 35.009-27.663 50.696-37.023 7.557-4.508 13.92-7.98 14.14-7.713.22.266-6.635 23.883-15.233 52.483l-15.633 52-29.117.667-29.116.667-5.675 18.666c-3.121 10.267-6.04 20.302-6.488 22.3l-.813 3.633 21.715.367 21.716.367 1.97 3.513c1.767 3.15 1.735 3.873-.314 7l-2.285 3.487H265.267l-.8 4-.8 4h-12.5c-6.875 0-12.5-.484-12.5-1.074z"/>
    <path d="M200.79 185.334c6.651-11.28 35.186-50.858 36.047-49.997.286.287-2.964 11.866-7.224 25.731l-7.745 25.21-11.047.39c-8.74.307-10.835.029-10.032-1.334zm37.877 1.013c0-.329 1.455-5.279 3.234-11 1.78-5.721 5.413-17.452 8.074-26.069l4.84-15.666h19.601l2.125-6.238c1.17-3.43 2.126-6.73 2.126-7.333 0-.603-6.66-1.096-14.799-1.096H249.07l7.123-8.333c19.054-22.291 50.354-52.162 71.141-67.893C346.213 28.432 372 12.575 372 15.253c0 1.312-15.43 53.52-26.795 90.666l-3.97 12.974-28.93.36-28.93.359-5.585 18.35c-3.072 10.094-5.98 20.144-6.46 22.334l-.875 3.982h20.772c18.995 0 21.001.229 23.44 2.667 3.209 3.21 3.334 5.12.59 9.037-2.012 2.874-2.792 2.963-25.869 2.963h-23.794l-1.394 4-1.395 4h-12.069c-6.638 0-12.07-.27-12.07-.598z"/>
    <path d="M200.765 185.334c4.676-8.124 35.317-50.751 35.994-50.074.247.246-3.053 11.826-7.332 25.733l-7.78 25.285-10.937.39c-8.64.307-10.728.027-9.945-1.334zm38.681-1.389c2.681-8.385 15.22-49.395 15.22-49.778 0-.244 4.586-.618 10.19-.833l10.191-.389 1.79-6c.984-3.3 1.798-6.45 1.81-7 .01-.55-6.624-1-14.744-1h-14.764l12.249-13.991c23.994-27.407 56.073-56.17 82.29-73.787 13.8-9.273 26.867-16.788 27.716-15.939.333.333-6.294 23.606-14.727 51.717-8.434 28.11-15.334 51.31-15.334 51.555 0 .245-13.07.445-29.045.445h-29.046l-6.288 21.196c-3.458 11.658-6.287 21.858-6.287 22.667 0 1.006 6.283 1.47 19.89 1.47 10.94 0 20.887.382 22.103.849 3.662 1.405 5.07 7.013 2.678 10.665-2.045 3.12-2.311 3.153-25.905 3.153h-23.839l-1.394 4-1.395 4h-12.159c-12.005 0-12.147-.038-11.2-3z"/>
    <path d="M208.187 174.612c7.935-11.855 25.475-36.234 28.059-39 .8-.857 1.006-.618.575.666-.368 1.1-3.141 10.1-6.162 20-3.02 9.9-6.403 20.85-7.516 24.334l-2.024 6.333h-21.188zm31.06 10.078c.497-1.297 4.283-13.32 8.412-26.719l7.508-24.36h9.783c10.678 0 11.19-.422 13.314-11l.736-3.666h-14.278c-8.581 0-14.1-.513-13.833-1.285.244-.707 7.77-9.362 16.722-19.233 19.409-21.4 40.56-40.764 62.362-57.094 15.805-11.839 40.225-27.3 41.347-26.18.319.32-6.389 23.803-14.906 52.186l-15.487 51.606h-57.794l-6.645 22.333-6.646 22.334 21.797.666c23.542.72 24.3.977 24.34 8.255.011 1.973-.729 4.073-1.646 4.667-.916.593-12.44 1.378-25.609 1.745l-23.942.667-.781 3.333c-.756 3.225-1.186 3.346-13.22 3.719-11.435.354-12.367.195-11.534-1.974z"/>
    <path d="M201.801 184.982c1.675-4.364 32.829-47.852 33.674-47.006.256.256-2.821 11.154-6.838 24.218-4.017 13.064-7.304 23.977-7.304 24.252 0 .274-4.564.499-10.142.499-8.382 0-10.012-.34-9.39-1.963zm40.304-8.37a4127.87 4127.87 0 0 0 8.188-26.667l4.956-16.333 10.042-.003 10.042-.003 2.159-7.331 2.158-7.331H250.515l1.98-2.827c1.09-1.555 8.62-10.157 16.734-19.116 25.747-28.428 60.375-57.481 88.777-74.487 7.113-4.258 13.102-7.554 13.309-7.323.207.232-6.596 23.67-15.117 52.087l-15.492 51.667h-28.93c-26.402 0-28.99.204-29.614 2.333-3.584 12.218-11.977 40.022-12.478 41.334-.492 1.288 4.016 1.666 19.877 1.666 22.388 0 26.439 1.121 26.439 7.314 0 6.748-2.261 7.353-27.498 7.353h-23.307l-1.395 4-1.394 4h-23.533z"/>
</symbol></svg>